<svg xmlns="http://www.w3.org/2000/svg" viewBox="0 0 97 97">
  <path fill="white" d="M92.71,44.408L52.591,4.291c-2.31-2.311-6.057-2.311-8.369,0l-8.33,8.332l10.566,10.567
    c2.456-0.83,5.272-0.273,7.229,1.682c1.969,1.972,2.521,4.83,1.67,7.29l10.01,10.012
    c2.459-0.854,5.315-0.301,7.284,1.669c2.76,2.759,2.76,7.23,0,9.99c-2.763,2.761-7.234,2.761-9.997,0
    c-2.08-2.08-2.561-5.114-1.442-7.669l-9.335-9.331l-0.001,24.564c0.66,0.33,1.285,0.75,1.842,1.31
    c2.76,2.758,2.76,7.229,0,9.989c-2.762,2.762-7.234,2.762-9.994,0c-2.761-2.76-2.761-7.231,0-9.989
    c0.698-0.697,1.508-1.208,2.362-1.524V33.357c-0.854-0.316-1.663-0.82-2.362-1.521
    c-2.093-2.092-2.561-5.148-1.411-7.715L24.144,13.796l-19.13,19.13c-2.312,2.311-2.312,6.06,0,8.371
    l40.121,40.118c2.31,2.311,6.056,2.311,8.369,0L92.71,52.779C95.021,50.468,95.021,46.719,92.71,44.408z"/>
</svg>
